<svg>
<symbol id="twitter" viewBox="0 0 49.652 49.652">
<path d="M24.826 0C11.137 0 0 11.137 0 24.826c0 13.688 11.137 24.826 24.826 24.826 13.688 0 24.826-11.138 24.826-24.826C49.652 11.137 38.516 0 24.826 0zm11.075 19.144c.011.246.017.494.017.742 0 7.551-5.746 16.255-16.259 16.255-3.227 0-6.231-.943-8.759-2.565.447.053.902.08 1.363.08 2.678 0 5.141-.914 7.097-2.446a5.72 5.72 0 0 1-5.338-3.969 5.76 5.76 0 0 0 2.58-.096 5.715 5.715 0 0 1-4.583-5.603l.001-.072a5.69 5.69 0 0 0 2.587.714 5.71 5.71 0 0 1-2.541-4.755c0-1.048.281-2.03.773-2.874a16.225 16.225 0 0 0 11.777 5.972 5.707 5.707 0 0 1-.147-1.303 5.714 5.714 0 0 1 9.884-3.91 11.406 11.406 0 0 0 3.63-1.387 5.74 5.74 0 0 1-2.516 3.162 11.36 11.36 0 0 0 3.282-.899 11.494 11.494 0 0 1-2.848 2.954z"/>
</symbol>
<symbol id="facebook" viewBox="0 0 49.652 49.652">
<path d="M24.826 0C11.137 0 0 11.137 0 24.826c0 13.688 11.137 24.826 24.826 24.826 13.688 0 24.826-11.138 24.826-24.826C49.652 11.137 38.516 0 24.826 0zM31 25.7h-4.039v14.396h-5.985V25.7h-2.845v-5.088h2.845v-3.291c0-2.357 1.12-6.04 6.04-6.04l4.435.017v4.939h-3.219c-.524 0-1.269.262-1.269 1.386v2.99h4.56L31 25.7z"/>
</symbol>
<symbol id="soundcloud" viewBox="0 0 97.75 97.75">
<path d="M48.875 0C21.883 0 0 21.882 0 48.875S21.883 97.75 48.875 97.75 97.75 75.868 97.75 48.875 75.867 0 48.875 0zM7.739 62.171c-.027.193-.166.329-.34.329-.175 0-.315-.136-.339-.331l-.621-4.633.621-4.713c.023-.196.164-.333.339-.333.174 0 .313.136.34.33l.736 4.717-.736 4.634zm3.154 2.82c-.03.2-.176.342-.354.342-.18 0-.328-.144-.353-.343l-.834-7.454.834-7.622c.024-.199.173-.344.353-.344.179 0 .324.141.354.344l.948 7.622-.948 7.455zm3.405 1.261c-.026.241-.205.415-.426.415-.224 0-.402-.174-.425-.417l-.792-8.712.792-9.044c.022-.241.201-.416.425-.416.221 0 .399.175.426.416l.899 9.044-.899 8.714zm3.434.277c-.024.277-.238.488-.497.488a.511.511 0 0 1-.5-.488l-.748-8.989.748-9.292a.51.51 0 0 1 .5-.49c.259 0 .473.21.497.487l.85 9.294-.85 8.99zm3.461.075a.583.583 0 0 1-.57.562.58.58 0 0 1-.571-.562l-.706-9.063.706-8.619c.021-.321.267-.563.571-.563a.58.58 0 0 1 .57.56l.801 8.623-.801 9.062zm3.489.003v-.004c-.021.355-.302.636-.643.636a.657.657 0 0 1-.644-.634l-.661-9.062.661-14.024a.656.656 0 0 1 .644-.636c.341 0 .622.279.643.635l.75 14.025-.75 9.064zm3.463-.007v-.005a.727.727 0 0 1-.716.708.721.721 0 0 1-.713-.705l-.622-9.007.619-17.23a.727.727 0 0 1 .716-.708c.383 0 .698.311.716.708l.701 17.23-.701 9.009zm3.595-.138v-.005a.796.796 0 0 1-.786.779.793.793 0 0 1-.788-.775l-.577-8.914.577-18.669a.795.795 0 0 1 .788-.781c.424 0 .769.343.786.781l.652 18.669-.652 8.915zm3.571-.06a.866.866 0 0 1-.859.853.86.86 0 0 1-.858-.849l-.536-8.858.534-19.297a.867.867 0 0 1 .86-.855c.467 0 .846.375.859.855l.603 19.298-.603 8.853zm3.597-.077v-.007a.94.94 0 0 1-.932.929.934.934 0 0 1-.931-.924l-.493-8.773.49-18.805a.937.937 0 0 1 .934-.927c.509 0 .918.406.932.925l.555 18.807-.555 8.775zm3.626-.055v-.006a1.006 1.006 0 0 1-2.01.006l-.449-8.719.449-18.119c.011-.561.454-1 1.005-1 .552 0 .994.44 1.005 1l.503 18.121-.503 8.717zm3.698-.916l-.045.854c-.005.295-.13.563-.324.758a1.07 1.07 0 0 1-.753.314 1.082 1.082 0 0 1-1.077-1.068l-.408-8.667.404-21.352.004-.203a1.087 1.087 0 0 1 1.077-1.074c.218 0 .424.068.595.184.285.193.476.519.482.889l.452 21.562-.407 7.803zm3.593.738v-.01a1.164 1.164 0 0 1-1.15 1.146 1.159 1.159 0 0 1-1.151-1.138l-.232-4.209-.238-4.325.469-23.397.002-.118a1.16 1.16 0 0 1 1.152-1.147c.214 0 .414.061.585.165.33.201.559.565.565.98l.509 23.518-.511 8.535zm31.047 1.158s-28.909.003-28.937 0c-.625-.062-1.121-.559-1.127-1.198V32.92c.006-.609.215-.922 1.004-1.227a18.627 18.627 0 0 1 6.676-1.248c9.627 0 17.515 7.38 18.347 16.787 1.242-.52 2.606-.81 4.037-.81 5.767 0 10.438 4.674 10.438 10.439.001 5.765-4.671 10.389-10.438 10.389z"/>
</symbol>
<symbol id="web" viewBox="0 0 502.664 502.664">
<path fill="#010002" d="M83.155 234.108l19.349 72.003h28.474l36.001-111.909h-29.271l-21.355 73.34-18.724-73.34H69.048l-19.306 73.34-20.967-73.34H0l35.419 111.909h28.819zM265.472 194.202h-28.56l-19.328 73.34-21.053-73.34h-28.775l35.484 111.909h28.84l18.939-72.003 19.392 72.003h28.431l36.001-111.909h-29.207l-21.463 73.34zM473.392 194.202l-21.419 73.34-18.681-73.34h-28.624l-19.328 73.34-20.945-73.34h-28.818l35.505 111.909h28.797l18.939-72.003 19.328 72.003h28.516l36.002-111.909zM251.321 35.764c-86.564 0-161.026 51.166-195.28 124.765h390.582C412.326 86.93 337.885 35.764 251.321 35.764zM251.321 466.9c86.585 0 160.961-51.144 195.28-124.765H56.084C90.338 415.734 164.758 466.9 251.321 466.9z"/>
</symbol>
</svg>
