<svg xmlns="http://www.w3.org/2000/svg" viewBox="0 0 502.664 502.664"><path fill="#010002" d="M83.155 234.108l19.349 72.003h28.474l36.001-111.909h-29.271l-21.355 73.34-18.724-73.34H69.048l-19.306 73.34-20.967-73.34H0l35.419 111.909h28.819zM265.472 194.202h-28.56l-19.328 73.34-21.053-73.34h-28.775l35.484 111.909h28.84l18.939-72.003 19.392 72.003h28.431l36.001-111.909h-29.207l-21.463 73.34zM473.392 194.202l-21.419 73.34-18.681-73.34h-28.624l-19.328 73.34-20.945-73.34h-28.818l35.505 111.909h28.797l18.939-72.003 19.328 72.003h28.516l36.002-111.909zM251.321 35.764c-86.564 0-161.026 51.166-195.28 124.765h390.582C412.326 86.93 337.885 35.764 251.321 35.764zM251.321 466.9c86.585 0 160.961-51.144 195.28-124.765H56.084C90.338 415.734 164.758 466.9 251.321 466.9z"/></svg>