<?xml version="1.0" standalone="no"?>
<!DOCTYPE svg PUBLIC "-//W3C//DTD SVG 20010904//EN"
 "http://www.w3.org/TR/2001/REC-SVG-20010904/DTD/svg10.dtd">
<svg version="1.0" xmlns="http://www.w3.org/2000/svg"
 width="1005.000000pt" height="1005.000000pt" viewBox="0 0 1005.000000 1005.000000"
 preserveAspectRatio="xMidYMid meet">
<metadata>
Created by potrace 1.11, written by Peter Selinger 2001-2013
</metadata>
<g transform="translate(0.000000,1005.000000) scale(0.100000,-0.100000)"
fill="#000000" stroke="none">
<path d="M4800 9419 c-181 -19 -505 -97 -523 -126 -13 -21 -46 -34 -111 -44
-62 -8 -241 -81 -332 -134 -25 -15 -50 -38 -57 -52 -9 -20 -16 -24 -41 -20
-45 6 -179 -76 -444 -273 -123 -91 -144 -110 -156 -146 l-13 -40 27 4 c21 3
32 14 46 44 20 44 58 78 118 102 53 22 58 21 54 -16 -2 -28 -7 -33 -28 -33
-18 0 -33 -12 -53 -40 -16 -22 -54 -64 -85 -93 l-57 -52 86 40 c114 52 276
106 369 122 75 13 75 13 160 94 47 45 94 84 106 88 11 3 56 -1 100 -9 43 -8
93 -15 109 -15 28 0 30 3 30 36 l0 36 125 1 124 2 29 43 c28 41 31 43 66 37
48 -8 162 -65 175 -88 17 -28 -4 -34 -146 -42 -199 -11 -253 -25 -73 -19 94 3
184 12 240 24 231 50 244 52 298 40 29 -6 131 -48 227 -95 113 -54 219 -96
300 -120 154 -45 268 -92 385 -157 315 -177 541 -385 983 -907 163 -193 187
-226 239 -330 31 -64 77 -147 101 -184 101 -158 136 -288 182 -669 39 -322 83
-464 189 -608 88 -120 112 -158 132 -215 26 -74 36 -229 20 -304 -22 -105 -63
-158 -98 -129 -15 12 -16 9 -10 -20 18 -89 19 -195 2 -338 -13 -123 -14 -162
-5 -215 42 -232 305 -445 503 -408 121 22 209 102 256 229 161 438 228 892
170 1160 -11 52 -58 283 -104 513 -157 774 -232 1030 -407 1382 -241 487 -764
1042 -1348 1432 -426 284 -848 451 -1283 508 -126 16 -443 19 -577 4z m58 -15
c12 -4 22 -10 22 -14 0 -13 -81 -49 -127 -56 -48 -7 -54 2 -20 33 45 41 75 50
125 37z m-898 -259 c-12 -15 -30 -12 -30 6 0 5 10 9 21 9 18 0 19 -2 9 -15z"/>
<path d="M3110 8528 c0 -21 4 -38 9 -38 19 0 22 20 7 47 l-15 28 -1 -37z"/>
<path d="M3395 8483 c-159 -15 -175 -24 -175 -98 0 -41 -3 -47 -38 -70 -20
-13 -66 -36 -102 -51 -106 -43 -102 -39 -83 -79 9 -19 19 -35 22 -35 3 0 37
22 74 48 37 26 139 96 227 156 88 59 160 112 160 116 0 8 -52 16 -85 13z"/>
<path d="M2774 8438 l-19 -23 23 19 c21 18 27 26 19 26 -2 0 -12 -10 -23 -22z"/>
<path d="M2721 8381 c-8 -5 -9 -11 -3 -15 5 -3 12 1 16 9 6 17 6 18 -13 6z"/>
<path d="M2572 8218 c-23 -28 -23 -28 -2 -28 21 0 34 19 28 43 -2 9 -10 5 -26
-15z"/>
<path d="M2865 8091 c-99 -29 -113 -42 -140 -132 l-7 -24 17 24 c10 12 59 50
109 83 121 80 121 78 21 49z"/>
<path d="M2291 7721 c-44 -48 -76 -119 -68 -151 4 -15 -2 -24 -24 -35 -33 -17
-35 -23 -15 -50 8 -11 19 -16 30 -12 23 9 77 128 84 183 4 36 8 44 22 39 27
-9 41 16 25 45 l-13 25 -41 -44z"/>
<path d="M1155 7730 c-3 -5 -1 -10 4 -10 6 0 11 -9 11 -20 0 -10 9 -24 20 -30
25 -13 25 -4 0 38 -21 35 -26 37 -35 22z"/>
<path d="M1367 7641 c4 -16 13 -21 37 -20 30 0 30 1 7 10 -14 5 -30 14 -37 20
-9 8 -11 5 -7 -10z"/>
<path d="M1455 7599 c-9 -13 -7 -14 30 -26 24 -8 30 -15 30 -39 1 -28 3 -29
50 -32 l50 -3 -25 26 c-26 27 -108 85 -121 85 -4 0 -11 -5 -14 -11z"/>
<path d="M1493 7439 c11 -21 17 -42 13 -46 -11 -12 -41 12 -44 36 -4 23 -22
29 -22 7 0 -21 103 -165 118 -165 8 -1 12 -7 9 -13 -6 -18 12 -50 23 -43 6 3
7 -1 4 -9 -3 -9 5 -26 20 -41 14 -14 26 -33 26 -42 0 -32 159 -294 237 -389
18 -23 33 -46 33 -52 0 -14 -200 -123 -440 -241 -133 -65 -219 -115 -305 -177
-165 -120 -252 -170 -359 -206 -117 -39 -138 -50 -216 -114 -86 -70 -146 -134
-153 -162 -10 -41 21 -117 69 -170 49 -56 149 -112 197 -112 16 0 63 16 103
35 40 19 79 35 87 35 10 0 13 7 10 19 -14 54 65 104 161 100 182 -7 204 2 345
137 56 54 124 110 150 124 26 14 69 41 97 61 27 20 76 50 109 67 66 33 174
108 317 220 l93 73 27 -33 c15 -18 34 -45 42 -59 l16 -26 -133 -66 c-169 -83
-284 -166 -401 -288 -146 -151 -225 -296 -279 -507 -19 -76 -22 -114 -22 -292
0 -192 2 -211 27 -302 55 -197 128 -318 276 -459 249 -237 553 -356 1287 -504
582 -117 749 -179 830 -309 27 -45 30 -57 29 -127 -2 -218 -176 -338 -490
-339 -323 0 -533 157 -562 422 l-7 63 -754 3 c-415 1 -758 -1 -762 -5 -4 -5
-1 -53 7 -108 45 -326 195 -608 428 -803 272 -230 603 -359 1096 -428 156 -21
637 -30 840 -15 536 40 954 162 1261 366 52 35 101 71 109 80 11 14 17 5 44
-67 37 -98 75 -155 147 -224 93 -87 235 -139 417 -151 l93 -6 -78 -42 c-96
-51 -198 -119 -368 -243 -296 -216 -471 -316 -658 -373 -154 -47 -177 -56
-245 -96 -84 -50 -192 -138 -332 -271 l-115 -110 1 -78 c1 -111 44 -200 143
-301 124 -126 253 -193 371 -193 48 0 73 9 180 60 69 33 142 63 163 67 36 5
47 16 27 28 -5 3 -10 19 -10 35 0 42 50 94 128 132 73 36 53 35 362 27 89 -2
114 1 160 19 85 33 171 102 325 257 146 148 188 181 295 235 35 18 98 58 140
90 41 31 126 83 189 115 157 80 339 205 591 405 l215 170 23 -27 c12 -16 63
-84 112 -154 114 -159 172 -225 343 -390 221 -213 299 -335 332 -523 19 -112
48 -169 152 -302 66 -85 92 -111 116 -116 83 -19 268 38 421 130 130 78 226
205 226 299 0 23 -14 86 -30 138 -17 52 -34 118 -37 145 -5 47 -7 49 -20 30
-25 -35 -66 -26 -112 26 -55 62 -75 128 -71 229 9 218 5 278 -20 330 -35 73
-128 160 -270 254 -136 90 -191 138 -251 218 -21 28 -64 71 -94 95 -31 24 -80
75 -110 114 -50 66 -53 73 -37 87 25 22 57 36 135 63 95 32 150 66 225 138 97
92 97 111 1 25 -107 -96 -139 -120 -150 -113 -15 9 -10 71 11 126 31 82 31 82
75 64 21 -9 46 -14 57 -11 10 4 37 38 59 76 l42 70 28 -27 28 -27 15 34 c8 19
23 61 33 94 l18 60 85 12 c61 9 89 17 98 30 7 10 44 65 82 123 38 58 86 127
106 153 l37 49 -34 -21 c-18 -11 -52 -23 -76 -27 -29 -4 -44 -12 -48 -25 -8
-24 -17 -24 -40 1 -18 20 -18 21 16 56 29 30 39 35 74 32 34 -2 40 0 43 18 2
17 -3 23 -25 27 -21 4 -48 -6 -113 -43 -47 -26 -133 -73 -192 -104 -81 -43
-108 -62 -108 -77 0 -17 -5 -19 -32 -14 -43 8 -211 -66 -258 -113 -22 -22 -38
-31 -49 -26 -9 3 -20 7 -26 7 -13 0 -434 -182 -516 -223 -34 -17 -68 -29 -77
-25 -28 11 -157 129 -222 205 -120 138 -151 164 -236 199 -180 74 -177 71
-221 169 -32 69 -52 98 -96 137 -46 42 -137 103 -137 92 0 -2 40 -36 90 -76
49 -40 90 -79 90 -87 0 -19 -42 -28 -112 -21 -75 7 -84 14 -65 60 14 32 14 37
-2 51 -9 9 -43 24 -75 33 l-57 18 20 22 c12 12 21 26 21 31 0 11 -58 22 -116
22 -51 0 -60 10 -69 77 -9 67 -19 78 -87 97 -31 9 -94 32 -140 52 -46 19 -89
38 -96 41 -8 3 -5 -8 7 -28 12 -19 21 -46 21 -61 0 -21 4 -25 20 -21 23 6 26
-13 6 -39 -11 -15 -15 -16 -41 -2 -36 19 -45 31 -45 65 0 18 -6 28 -20 32 -17
4 -20 0 -20 -25 0 -22 21 -60 78 -137 43 -58 88 -122 101 -142 18 -27 30 -35
44 -31 17 4 19 1 13 -21 -5 -21 4 -44 40 -107 26 -44 51 -80 55 -80 21 0 49
-41 44 -63 -11 -45 267 -508 444 -737 74 -96 79 -106 63 -118 -34 -26 -446
-252 -459 -252 -2 0 -3 50 -3 111 0 110 0 111 -22 106 -128 -31 -217 -41 -358
-41 -138 0 -161 2 -212 22 -73 29 -128 90 -154 169 -18 56 -19 121 -22 1571
l-2 1512 370 0 370 0 0 195 0 195 -370 0 -370 0 -2 548 -3 547 -232 3 -233 2
0 -550 0 -550 -274 0 c-159 0 -277 -4 -281 -9 -3 -6 -41 2 -88 18 -195 66
-456 112 -752 132 -197 14 -571 6 -715 -15 -95 -14 -95 -14 -135 11 -41 26
-255 239 -255 254 0 11 45 34 99 50 28 8 63 31 95 62 l51 49 -54 -46 c-30 -26
-59 -45 -65 -43 -13 5 -9 42 8 77 12 25 17 27 48 15 12 -5 24 4 43 35 22 34
29 39 41 29 18 -15 18 -14 35 41 13 43 16 45 59 50 39 4 48 10 74 50 16 25 42
62 59 84 l30 38 -34 -7 c-19 -4 -37 -13 -41 -19 -5 -8 -11 -7 -19 1 -17 17 16
53 48 53 23 0 34 20 11 20 -24 1 -218 -105 -218 -118 0 -7 -8 -12 -17 -11 -25
4 -64 -11 -58 -21 3 -4 -3 -6 -13 -3 -11 2 -32 -6 -49 -21 -17 -14 -40 -26
-52 -26 -11 0 -55 -15 -97 -34 -57 -25 -72 -35 -55 -38 31 -4 26 -23 -6 -23
-17 0 -27 5 -26 12 2 8 -19 3 -55 -13 -94 -43 -83 -47 -195 68 -80 82 -113
108 -152 122 -62 23 -82 41 -101 85 -17 42 -38 66 -79 93 -17 12 -12 4 13 -17
23 -20 42 -41 42 -46 0 -5 -23 -9 -51 -9 l-51 0 7 29 c6 27 3 30 -29 41 -38
12 -45 23 -23 37 7 5 -7 10 -38 13 -48 5 -50 6 -55 40 -5 37 -9 40 -116 83
l-62 24 21 -38z m241 -414 c7 -19 -3 -47 -15 -39 -12 7 -12 54 0 54 5 0 11 -7
15 -15z m1777 -1485 c76 -15 170 -61 223 -110 52 -48 111 -158 122 -225 l6
-45 579 0 579 0 0 -355 0 -355 -65 40 c-248 152 -556 256 -1105 375 -118 25
-264 57 -325 71 -421 96 -585 191 -585 338 0 136 106 235 283 265 74 12 225
13 288 1z m2625 -1837 c-10 -10 -19 5 -10 18 6 11 8 11 12 0 2 -7 1 -15 -2
-18z m2114 -293 c0 -5 -4 -10 -10 -10 -5 0 -10 5 -10 10 0 6 5 10 10 10 6 0
10 -4 10 -10z m-1860 -51 c14 -25 3 -79 -15 -79 -24 0 -36 35 -24 69 13 36 24
39 39 10z m1373 -170 c20 -5 37 -14 37 -19 0 -25 -79 -40 -110 -20 -12 7 -12
12 4 29 22 24 20 24 69 10z"/>
<path d="M3420 7470 c0 -5 -7 -7 -15 -4 -8 4 -27 -1 -41 -11 -20 -13 -23 -19
-14 -28 10 -9 14 -9 17 1 3 6 14 12 24 12 28 0 61 19 54 31 -8 12 -25 12 -25
-1z"/>
<path d="M3242 7258 c-5 -7 -13 -24 -17 -38 -4 -14 -6 -23 -4 -20 2 3 17 20
33 38 22 23 25 32 14 32 -9 0 -20 -6 -26 -12z"/>
<path d="M3149 7152 c-21 -31 -29 -37 -56 -34 -27 3 -32 -1 -42 -29 -13 -38
-14 -59 -3 -59 11 0 134 107 144 124 4 8 2 19 -6 25 -10 8 -18 2 -37 -27z"/>
<path d="M5700 4518 c6 -18 10 -34 10 -35 0 -2 30 -3 68 -3 l67 1 -64 25 c-35
13 -70 29 -77 35 -11 9 -11 4 -4 -23z"/>
<path d="M5872 4437 c-12 -13 -22 -26 -22 -29 0 -2 25 -10 55 -17 30 -7 64
-20 75 -29 18 -15 19 -21 8 -55 -15 -50 -5 -57 89 -57 115 0 113 5 -47 129
-76 59 -112 81 -128 81 -5 0 -18 -10 -30 -23z"/>
<path d="M5522 4331 c-10 -6 -10 -10 3 -21 13 -11 15 -9 15 9 0 24 0 24 -18
12z"/>
<path d="M5860 4223 c0 -6 -3 -20 -6 -30 -7 -17 -6 -17 12 -1 14 14 16 21 6
30 -8 8 -12 9 -12 1z"/>
<path d="M9578 4208 c-3 -20 -8 -23 -41 -20 -42 4 -79 -15 -97 -49 -9 -17 -8
-23 7 -34 22 -16 36 -9 29 13 -5 14 2 17 33 17 38 1 121 31 121 45 0 3 -11 17
-24 29 l-24 23 -4 -24z"/>
<path d="M9102 4021 c-11 -7 -10 -10 3 -15 23 -9 25 -8 25 9 0 17 -9 19 -28 6z"/>
<path d="M9270 3811 c-33 -6 -36 -10 -57 -71 -30 -90 -29 -90 23 -19 25 35 55
72 66 82 11 9 16 16 12 16 -5 -1 -25 -4 -44 -8z"/>
<path d="M8860 3669 c6 -11 16 -19 21 -17 17 6 12 22 -10 30 -19 7 -20 5 -11
-13z"/>
<path d="M9093 3641 c-30 -56 -73 -112 -89 -118 -9 -3 -32 2 -52 11 -34 17
-37 17 -49 -1 -14 -19 -53 -135 -53 -158 0 -28 19 -23 74 19 75 59 216 187
226 207 6 10 1 25 -15 45 l-23 29 -19 -34z"/>
</g>
</svg>
